# xmcd CD database file
#
# Track frame offsets:
#	150
#	20195
#	41470
#	60859
#	80849
#	95724
#	111569
#	124833
#	144980
#	161216
#	183022
#	202577
#	216866
#	235122
#	253782
#
# Disc length: 3521 seconds
#
# Revision: 0
# Processed by: cddbd v1.5.1PL2 Copyright (c) Steve Scherf et al.
# Submitted via: CDex 1.51
#
DISCID=d10dbf0f
DTITLE=0471-Garth Brooks - The Best Of CD 2
DYEAR=2003
DGENRE=Country
TTITLE0=Dixie Chicken
TTITLE1=Dr Pepper Song
TTITLE2=Every Now And Then
TTITLE3=Face To Face
TTITLE4=Hard Luck Woman
TTITLE5=Honey Can You Squeeze Me In - with Trisha Yearwood
TTITLE6=I Know One 
TTITLE7=I will sail my vessel
TTITLE8=In Another Eyes - with Trisha Yearwood
TTITLE9=In Lonesome Dove
TTITLE10=It's Your Song 
TTITLE11=Katie Wants A Fast One
TTITLE12=Kickin' And Screamin'
TTITLE13=Learning To Live Again
TTITLE14=Long Neck Bottle
EXTD=YEAR: 2003
EXTT0=
EXTT1=
EXTT2=
EXTT3=
EXTT4=
EXTT5=
EXTT6=
EXTT7=
EXTT8=
EXTT9=
EXTT10=
EXTT11=
EXTT12=
EXTT13=
EXTT14=
PLAYORDER=
